<?xml version="1.0" standalone="no"?>
<!DOCTYPE svg PUBLIC "-//W3C//DTD SVG 20010904//EN"
 "http://www.w3.org/TR/2001/REC-SVG-20010904/DTD/svg10.dtd">
<svg version="1.0" xmlns="http://www.w3.org/2000/svg"
 width="900.000000pt" height="900.000000pt" viewBox="0 0 900.000000 900.000000"
 preserveAspectRatio="xMidYMid meet">

<g transform="translate(0.000000,900.000000) scale(0.100000,-0.100000)"
fill="#000000" stroke="none">
<path d="M1 6933 c1 -1218 5 -2033 10 -1983 103 1020 542 1964 1254 2699 728
751 1690 1222 2727 1335 106 12 -155 14 -1934 15 l-2058 1 1 -2067z"/>
<path d="M4875 8993 c1346 -121 2579 -857 3327 -1984 740 -1115 950 -2483 578
-3770 -345 -1193 -1193 -2210 -2307 -2767 -532 -267 -1153 -433 -1738 -465
-33 -2 913 -4 2103 -5 l2162 -2 0 4500 0 4500 -2082 -2 c-1146 -1 -2065 -3
-2043 -5z"/>
<path d="M4235 8724 c-234 -18 -590 -67 -608 -83 -5 -5 0 -48 9 -97 29 -149
18 -430 -21 -566 -16 -53 -46 -121 -117 -267 -26 -52 -44 -98 -41 -101 12 -11
114 121 159 207 13 26 28 55 33 63 14 24 48 102 61 140 7 19 16 44 20 55 5 11
11 31 13 45 3 14 15 61 27 105 12 44 25 105 30 135 19 115 27 151 38 162 19
19 38 -7 52 -69 7 -32 17 -62 22 -67 4 -6 8 -21 8 -35 0 -15 8 -46 17 -71 17
-47 27 -105 42 -252 5 -47 12 -92 16 -98 11 -18 -24 -289 -51 -395 -6 -27 -21
-70 -33 -95 -11 -25 -21 -53 -21 -63 0 -21 -45 -113 -60 -122 -17 -10 -40 -75
-40 -111 0 -41 20 -44 82 -14 23 11 49 20 57 20 9 0 25 7 35 15 11 8 29 15 40
15 12 0 41 7 66 16 50 17 119 32 195 41 28 3 58 10 68 15 55 28 636 27 817 -2
36 -6 106 -14 155 -19 50 -5 108 -14 130 -21 22 -6 50 -14 63 -17 12 -3 25 -9
28 -14 3 -5 16 -9 29 -9 13 0 27 -4 30 -10 3 -5 13 -10 22 -10 9 0 35 -9 58
-20 23 -11 68 -27 100 -35 32 -9 75 -24 94 -34 20 -11 94 -47 166 -81 71 -34
148 -75 171 -91 24 -16 45 -29 49 -29 11 0 97 -61 161 -114 33 -28 83 -69 110
-91 120 -98 279 -285 357 -422 26 -46 47 -88 47 -96 0 -7 4 -17 8 -22 22 -25
75 -167 89 -235 21 -110 36 -236 36 -310 -1 -89 -16 -211 -31 -237 -7 -12 -12
-31 -12 -42 0 -12 -4 -29 -9 -39 -5 -9 -19 -55 -31 -102 -20 -80 -88 -232
-163 -361 -42 -73 -61 -101 -119 -175 -26 -34 -48 -65 -48 -69 0 -12 -162
-189 -274 -299 -123 -120 -205 -189 -381 -316 -64 -47 -134 -98 -155 -115 -21
-16 -61 -43 -90 -60 -28 -16 -92 -56 -141 -87 -49 -32 -94 -58 -99 -58 -16 0
-177 -89 -190 -105 -17 -21 4 -51 53 -76 23 -12 70 -41 103 -65 34 -24 65 -44
69 -44 4 0 25 -13 48 -29 66 -45 187 -121 194 -121 4 0 14 -6 22 -14 22 -19
232 -146 242 -146 5 0 23 -8 41 -19 213 -122 306 -171 323 -171 2 0 28 -11 57
-24 29 -13 85 -36 123 -51 39 -15 89 -35 112 -46 24 -10 52 -19 63 -19 11 0
28 -4 38 -9 9 -5 44 -15 77 -21 33 -7 80 -18 105 -25 140 -39 367 -59 585 -51
241 9 335 19 510 57 28 6 79 14 115 17 l65 7 22 45 c92 187 216 531 272 755
352 1411 -20 2876 -1000 3931 -690 743 -1598 1201 -2619 1319 -127 15 -584 27
-695 19z"/>
<path d="M3345 8575 c-182 -53 -355 -113 -495 -172 -1566 -666 -2580 -2199
-2580 -3898 0 -1066 392 -2070 1119 -2868 109 -119 258 -263 265 -256 2 2 0
27 -5 54 -17 99 -31 403 -26 555 6 165 15 248 56 481 5 30 19 72 30 93 12 20
21 45 21 56 0 10 4 22 10 25 5 3 10 14 10 23 0 10 13 44 30 75 16 32 30 63 30
68 0 6 14 30 30 54 17 24 30 48 30 53 0 14 153 192 231 269 127 123 326 271
474 353 33 18 65 36 70 40 6 5 69 38 140 75 72 36 134 70 139 76 6 5 16 9 23
9 7 0 79 32 160 71 200 96 234 111 338 153 50 21 113 48 140 60 125 59 187 86
195 86 5 0 33 14 63 30 30 17 63 30 72 30 9 0 44 13 78 28 34 16 98 44 142 61
44 18 98 41 120 51 131 59 216 98 260 121 27 14 113 58 190 97 77 39 151 81
165 94 14 13 59 45 100 72 41 28 101 71 132 98 31 26 59 48 63 48 14 0 181
163 201 196 12 20 33 47 46 62 49 54 110 249 111 352 0 77 -13 116 -71 208
-34 53 -147 172 -165 172 -5 0 -21 8 -35 19 -34 23 -212 101 -233 101 -8 0
-19 4 -24 9 -6 5 -30 11 -55 14 -25 3 -65 10 -90 17 -68 18 -424 32 -474 19
-23 -6 -70 -15 -106 -20 -119 -16 -222 -38 -298 -62 -29 -9 -76 -24 -104 -34
-29 -9 -75 -27 -102 -40 -28 -12 -56 -23 -63 -23 -7 0 -31 -11 -52 -24 -21
-14 -54 -32 -72 -41 -167 -78 -356 -219 -475 -355 -71 -82 -184 -275 -184
-315 0 -11 -4 -25 -9 -30 -11 -12 -24 -124 -21 -185 1 -25 3 -67 4 -95 l1 -50
-37 -3 c-29 -3 -46 4 -90 37 -29 23 -58 41 -64 41 -6 0 -17 7 -24 15 -7 9 -15
13 -18 10 -3 -3 -10 -1 -16 4 -16 14 -182 67 -246 80 -30 6 -90 13 -132 17
-106 8 -107 13 -40 154 80 167 211 330 418 520 79 74 114 100 213 162 94 59
133 100 113 120 -9 9 -20 9 -45 1 -17 -7 -70 -17 -117 -23 -47 -7 -93 -16
-102 -21 -10 -5 -29 -9 -42 -9 -14 0 -35 -4 -48 -9 -63 -24 -130 -43 -134 -38
-5 5 -148 -54 -226 -94 -46 -24 -222 -156 -255 -191 -28 -31 -95 -143 -118
-198 -13 -33 -19 -71 -19 -138 -1 -78 -4 -96 -19 -107 -29 -21 -140 -7 -277
36 -223 70 -336 168 -390 342 -11 34 -9 47 10 98 34 96 88 178 169 262 119
123 187 170 511 350 108 60 243 127 256 127 22 0 81 39 98 65 9 13 16 41 16
62 0 99 41 306 88 443 27 79 124 284 146 310 8 8 20 29 29 45 16 32 123 172
204 267 45 53 116 129 263 285 105 110 195 217 240 285 24 34 55 77 70 93 34
38 109 170 145 255 35 83 84 230 76 229 -3 0 -73 -20 -156 -44z"/>
<path d="M3335 6854 c-71 -44 -258 -132 -330 -155 -119 -38 -156 -82 -95 -114
36 -18 220 -21 271 -3 95 32 227 177 232 254 2 33 -1 39 -18 41 -11 1 -38 -9
-60 -23z"/>
<path d="M1 2073 l-1 -2073 2133 2 c1172 1 2107 3 2077 5 -868 53 -1714 362
-2407 880 -245 183 -574 492 -752 708 -598 722 -946 1549 -1040 2470 -5 44 -9
-853 -10 -1992z"/>
<path d="M4335 3089 c-60 -21 -119 -43 -130 -49 -11 -5 -60 -24 -110 -41 -49
-17 -103 -37 -120 -43 -16 -7 -55 -21 -85 -31 -30 -10 -64 -23 -75 -29 -11 -6
-30 -11 -42 -13 -12 -1 -34 -8 -50 -16 -15 -8 -73 -31 -128 -51 -55 -20 -108
-41 -117 -46 -10 -6 -29 -10 -44 -10 -14 0 -38 -8 -52 -19 -15 -10 -45 -24
-67 -31 -22 -6 -67 -25 -100 -41 -34 -16 -66 -29 -73 -29 -16 0 -280 -128
-287 -140 -3 -5 -23 -17 -43 -27 -52 -24 -132 -76 -240 -158 -52 -38 -112 -82
-134 -96 -60 -39 -224 -222 -323 -359 -11 -16 -41 -57 -66 -92 -26 -34 -59
-88 -74 -118 -15 -30 -37 -68 -49 -85 -12 -16 -30 -48 -40 -70 -10 -22 -33
-71 -52 -110 -61 -126 -62 -119 63 -217 460 -360 995 -620 1562 -762 363 -91
610 -120 1011 -120 365 -1 599 24 914 94 939 210 1759 723 2370 1482 96 119
247 332 276 388 l13 25 -24 -21 c-22 -19 -127 -94 -168 -119 -9 -5 -35 -25
-58 -43 -23 -18 -59 -40 -80 -50 -21 -9 -65 -33 -98 -53 -33 -20 -72 -39 -88
-43 -15 -4 -49 -19 -75 -35 -26 -16 -58 -32 -72 -36 -23 -6 -68 -24 -112 -46
-10 -5 -27 -9 -39 -9 -19 0 -124 -30 -174 -51 -11 -4 -36 -10 -55 -12 -19 -3
-55 -10 -80 -17 -66 -17 -404 -36 -507 -29 -48 4 -135 10 -193 14 -58 3 -148
15 -200 26 -52 11 -120 24 -150 30 -30 6 -64 15 -75 19 -24 10 -66 20 -118 27
-20 3 -40 9 -43 14 -3 5 -14 9 -24 9 -10 0 -39 9 -65 20 -25 11 -56 22 -68 24
-55 10 -111 29 -166 56 -33 17 -67 30 -77 30 -9 0 -33 9 -53 19 -20 11 -63 29
-96 41 -33 12 -68 26 -77 31 -10 5 -23 9 -28 9 -6 0 -67 27 -136 60 -68 33
-129 60 -134 60 -15 0 -172 81 -206 107 -17 13 -38 23 -47 23 -9 0 -19 5 -22
10 -3 6 -15 10 -25 10 -11 0 -43 15 -72 34 -29 18 -105 60 -168 93 -173 91
-254 134 -267 145 -7 6 -40 23 -73 39 -49 25 -60 34 -60 55 0 17 8 28 28 35
72 30 232 111 232 120 0 5 7 9 16 9 8 0 34 13 57 28 23 16 58 35 77 42 19 7
53 25 75 40 22 14 66 39 97 55 69 35 115 70 102 77 -5 3 -58 -12 -119 -33z"/>
</g>
</svg>
